<svg width="276" height="36" viewBox="0 0 276 36" fill="none" xmlns="http://www.w3.org/2000/svg">
<path d="M242.531 30.9273C242.531 30.4364 242.202 30.1091 241.707 30.1091H227.363C226.869 30.1091 226.539 30.4364 226.539 30.9273C226.539 31.4182 226.869 31.7455 227.363 31.7455H241.707C242.202 31.7455 242.531 31.3364 242.531 30.9273Z" fill="black"/>
<path d="M230.661 34.2H229.012C228.517 34.2 228.188 34.5273 228.188 35.0182C228.188 35.5091 228.517 35.8364 229.012 35.8364H230.661C231.155 35.8364 231.485 35.5091 231.485 35.0182C231.485 34.5273 231.155 34.2 230.661 34.2Z" fill="black"/>
<path d="M234.535 26.8364C234.535 26.3455 234.206 26.0182 233.711 26.0182H225.715C225.22 26.0182 224.89 26.3455 224.89 26.8364C224.89 27.3273 225.22 27.6546 225.715 27.6546H233.711C234.206 27.6546 234.535 27.2455 234.535 26.8364Z" fill="black"/>
<path d="M275.505 28.2273C275.258 27.7364 274.764 27.3273 274.269 27.0818L268.004 24.7091L265.448 23.8091C264.706 23.4818 264.047 22.9909 263.635 22.3364L261.491 18.8182C261.904 18.7364 262.151 18.4091 262.151 18C262.151 17.5091 261.821 17.1818 261.327 17.1818H260.502L259.513 15.5455C259.925 15.4636 260.173 15.1364 260.173 14.7273C260.173 14.2364 259.843 13.9091 259.348 13.9091H258.524L257.699 12.6C258.029 12.5182 258.277 12.1909 258.277 11.8636C258.277 11.3727 257.947 11.0455 257.452 11.0455H256.71L255.639 9.32727C255.639 9.32727 255.639 9.24545 255.556 9.24545C254.567 8.1 253.248 7.52727 251.847 7.69091C250.61 7.85454 249.621 8.59091 249.209 9.49091C249.126 9.73636 249.126 9.98182 249.291 10.2273L256.133 21.8455C256.216 22.0091 256.381 22.1727 256.545 22.1727L264.954 25.3636H265.036L267.509 26.2636L273.692 28.6364C273.857 28.7182 274.022 28.8 274.104 29.0455C274.434 29.7 274.434 30.3545 274.022 31.0091H260.585C259.76 31.0091 258.936 30.7636 258.277 30.2727L235.277 13.3364C235.277 13.3364 235.607 13.1727 236.019 12.6C236.431 12.0273 236.596 11.2909 236.596 10.5545L235.854 3.68182L236.843 2.12727C237.091 1.8 237.585 1.71818 237.915 1.96363C238.162 2.20909 239.152 3.02727 241.542 6.87273C242.779 8.67273 244.757 9.98182 246.983 10.3091C247.395 10.3909 247.89 10.0636 247.972 9.65454C248.055 9.24545 247.725 8.75454 247.313 8.67273C245.582 8.34545 243.933 7.36363 242.944 5.89091C240.058 1.47273 239.234 0.81818 238.904 0.572725C237.833 -0.163638 236.349 0.0818163 235.524 1.14545L230.496 9.08182C230.166 9.57273 230.084 10.1455 230.166 10.7182C229.672 10.8818 229.177 11.1273 228.93 11.6182L227.611 13.6636C226.869 14.7273 227.199 16.2 228.27 16.9364C229.012 17.5091 230.578 18.4909 232.887 19.9636C233.051 20.0455 233.216 20.1273 233.299 20.1273C233.546 20.1273 233.793 19.9636 233.958 19.7182C234.205 19.3091 234.123 18.8182 233.711 18.5727C231.485 17.1 229.919 16.1182 229.177 15.5455C228.847 15.3 228.765 14.8909 229.012 14.4818L230.249 12.6C230.496 12.2727 230.991 12.1909 231.32 12.4364L257.205 31.5818C258.194 32.3182 259.348 32.6455 260.502 32.6455H271.878C270.147 33.4636 267.757 34.2 265.696 34.2H262.81H260.42C259.018 34.2 257.617 33.7909 256.463 33.0545C251.682 30.0273 242.779 24.3818 236.266 20.2091C235.854 19.9636 235.36 20.0455 235.112 20.4545C234.865 20.8636 234.947 21.3545 235.36 21.6C241.707 25.6909 250.363 31.1727 255.226 34.2818H233.958C233.464 34.2818 233.134 34.6091 233.134 35.1C233.134 35.5909 233.464 35.9182 233.958 35.9182H260.42H262.81H265.613C268.993 35.9182 273.857 34.1182 275.093 32.4C276.165 30.9273 276.247 29.5364 275.505 28.2273ZM257.287 20.8636L250.857 9.98182C251.105 9.73636 251.517 9.49091 252.011 9.40909C252.506 9.32727 253.413 9.40909 254.237 10.3091L254.732 11.1273H253.99C253.495 11.1273 253.166 11.4545 253.166 11.9455C253.166 12.4364 253.495 12.7636 253.99 12.7636H255.721L256.545 14.0727H255.886C255.391 14.0727 255.062 14.4 255.062 14.8909C255.062 15.3818 255.391 15.7091 255.886 15.7091H257.535L258.524 17.2636H257.864C257.37 17.2636 257.04 17.5909 257.04 18.0818C257.04 18.5727 257.37 18.9 257.864 18.9H259.513L261.821 22.5L257.287 20.8636ZM231.897 9.98182L234.453 5.97273L234.947 10.7182C234.947 11.0455 234.865 11.3727 234.7 11.6182C234.535 11.8636 234.205 12.5182 233.464 11.9455C233.464 11.9455 233.051 11.7 232.309 11.1273C231.815 10.7182 231.732 10.3091 231.897 9.98182Z" fill="black"/>
<path d="M8.48145 27.4707H5.69824V35H0.556641V13.6719H8.9502C11.4795 13.6719 13.457 14.2334 14.8828 15.3564C16.3086 16.4795 17.0215 18.0664 17.0215 20.1172C17.0215 21.6016 16.7212 22.832 16.1206 23.8086C15.52 24.7852 14.5801 25.5762 13.3008 26.1816L17.7539 34.7803V35H12.2461L8.48145 27.4707ZM5.69824 23.501H8.9502C9.92676 23.501 10.6616 23.2446 11.1548 22.7319C11.648 22.2192 11.8945 21.5039 11.8945 20.5859C11.8945 19.668 11.6455 18.9478 11.1475 18.4253C10.6494 17.9028 9.917 17.6416 8.9502 17.6416H5.69824V23.501ZM38.1885 24.7754C38.1885 26.8555 37.8027 28.6963 37.0312 30.2979C36.2598 31.8994 35.1636 33.1323 33.7427 33.9966C32.3218 34.8608 30.7031 35.293 28.8867 35.293C27.0703 35.293 25.459 34.8755 24.0527 34.0405C22.6465 33.2056 21.5503 32.0117 20.7642 30.459C19.978 28.9062 19.5654 27.124 19.5264 25.1123V23.9111C19.5264 21.8213 19.9097 19.978 20.6763 18.3813C21.4429 16.7847 22.5415 15.5518 23.9722 14.6826C25.4028 13.8135 27.0312 13.3789 28.8574 13.3789C30.6641 13.3789 32.2754 13.8086 33.6914 14.668C35.1074 15.5273 36.2085 16.7505 36.9946 18.3374C37.7808 19.9243 38.1787 21.7432 38.1885 23.7939V24.7754ZM32.959 23.8818C32.959 21.7627 32.605 20.1538 31.897 19.0552C31.189 17.9565 30.1758 17.4072 28.8574 17.4072C26.2793 17.4072 24.917 19.3408 24.7705 23.208L24.7559 24.7754C24.7559 26.8652 25.1025 28.4717 25.7959 29.5947C26.4893 30.7178 27.5195 31.2793 28.8867 31.2793C30.1856 31.2793 31.1865 30.7275 31.8896 29.624C32.5928 28.5205 32.9492 26.9336 32.959 24.8633V23.8818ZM58.0957 27.7783C58.0273 29.2627 57.627 30.5737 56.8945 31.7114C56.1621 32.8491 55.1343 33.7305 53.811 34.3555C52.4878 34.9805 50.9766 35.293 49.2773 35.293C46.4746 35.293 44.2676 34.3799 42.6562 32.5537C41.0449 30.7275 40.2393 28.1494 40.2393 24.8193V23.7646C40.2393 21.6748 40.603 19.8462 41.3306 18.2788C42.0581 16.7114 43.1055 15.5005 44.4727 14.646C45.8399 13.7915 47.4219 13.3643 49.2188 13.3643C51.8067 13.3643 53.8867 14.0454 55.459 15.4077C57.0313 16.77 57.9248 18.6474 58.1396 21.04H53.0127C52.9736 19.7412 52.6465 18.8086 52.0312 18.2422C51.416 17.6758 50.4785 17.3926 49.2188 17.3926C47.9394 17.3926 47.002 17.8711 46.4062 18.8281C45.8105 19.7852 45.498 21.3135 45.4688 23.4131V24.9219C45.4688 27.1973 45.7544 28.8232 46.3257 29.7998C46.897 30.7764 47.8809 31.2646 49.2773 31.2646C50.459 31.2646 51.3623 30.9863 51.9873 30.4297C52.6123 29.873 52.9443 28.9893 52.9834 27.7783H58.0957ZM67.7783 27.0605L65.6689 29.375V35H60.5273V13.6719H65.6689V23.0762L67.4561 20.3662L72.0557 13.6719H78.4131L71.2061 23.1055L78.4131 35H72.3193L67.7783 27.0605ZM92.9443 25.9619H84.8584V31.0449H94.4092V35H79.7168V13.6719H94.4385V17.6416H84.8584V22.1387H92.9443V25.9619ZM113.54 17.6416H107.139V35H101.997V17.6416H95.7129V13.6719H113.54V17.6416ZM126.475 29.3311C126.475 28.5791 126.208 27.9932 125.676 27.5732C125.144 27.1533 124.209 26.7188 122.871 26.2695C121.533 25.8203 120.439 25.3857 119.59 24.9658C116.826 23.6084 115.444 21.7432 115.444 19.3701C115.444 18.1885 115.789 17.146 116.477 16.2427C117.166 15.3394 118.14 14.6362 119.399 14.1333C120.659 13.6304 122.075 13.3789 123.647 13.3789C125.181 13.3789 126.555 13.6523 127.771 14.1992C128.987 14.7461 129.932 15.5249 130.605 16.5356C131.279 17.5464 131.616 18.7012 131.616 20H126.489C126.489 19.1309 126.223 18.457 125.691 17.9785C125.159 17.5 124.438 17.2607 123.53 17.2607C122.612 17.2607 121.887 17.4634 121.355 17.8687C120.823 18.2739 120.557 18.7891 120.557 19.4141C120.557 19.9609 120.85 20.4565 121.436 20.9009C122.021 21.3452 123.052 21.8042 124.526 22.2778C126.001 22.7515 127.212 23.2617 128.159 23.8086C130.464 25.1367 131.616 26.9678 131.616 29.3018C131.616 31.167 130.913 32.6318 129.507 33.6963C128.101 34.7607 126.172 35.293 123.721 35.293C121.992 35.293 120.427 34.9829 119.026 34.3628C117.625 33.7427 116.57 32.8931 115.862 31.814C115.154 30.7349 114.8 29.4922 114.8 28.0859H119.956C119.956 29.2285 120.251 30.0708 120.842 30.6128C121.433 31.1548 122.393 31.4258 123.721 31.4258C124.57 31.4258 125.242 31.2427 125.735 30.8765C126.228 30.5103 126.475 29.9951 126.475 29.3311ZM152.08 35H146.968V26.0938H139.395V35H134.253V13.6719H139.395V22.1387H146.968V13.6719H152.08V35ZM173.394 24.7754C173.394 26.8555 173.008 28.6963 172.236 30.2979C171.465 31.8994 170.369 33.1323 168.948 33.9966C167.527 34.8608 165.908 35.293 164.092 35.293C162.275 35.293 160.664 34.8755 159.258 34.0405C157.852 33.2056 156.755 32.0117 155.969 30.459C155.183 28.9062 154.771 27.124 154.731 25.1123V23.9111C154.731 21.8213 155.115 19.978 155.881 18.3813C156.648 16.7847 157.747 15.5518 159.177 14.6826C160.608 13.8135 162.236 13.3789 164.062 13.3789C165.869 13.3789 167.48 13.8086 168.896 14.668C170.313 15.5273 171.414 16.7505 172.2 18.3374C172.986 19.9243 173.384 21.7432 173.394 23.7939V24.7754ZM168.164 23.8818C168.164 21.7627 167.81 20.1538 167.102 19.0552C166.394 17.9565 165.381 17.4072 164.062 17.4072C161.484 17.4072 160.122 19.3408 159.976 23.208L159.961 24.7754C159.961 26.8652 160.308 28.4717 161.001 29.5947C161.694 30.7178 162.725 31.2793 164.092 31.2793C165.391 31.2793 166.392 30.7275 167.095 29.624C167.798 28.5205 168.154 26.9336 168.164 24.8633V23.8818ZM189.272 25.9619H181.187V31.0449H190.737V35H176.045V13.6719H190.767V17.6416H181.187V22.1387H189.272V25.9619ZM203.833 29.3311C203.833 28.5791 203.567 27.9932 203.035 27.5732C202.502 27.1533 201.567 26.7188 200.229 26.2695C198.892 25.8203 197.798 25.3857 196.948 24.9658C194.185 23.6084 192.803 21.7432 192.803 19.3701C192.803 18.1885 193.147 17.146 193.835 16.2427C194.524 15.3394 195.498 14.6362 196.758 14.1333C198.018 13.6304 199.434 13.3789 201.006 13.3789C202.539 13.3789 203.914 13.6523 205.129 14.1992C206.345 14.7461 207.29 15.5249 207.964 16.5356C208.638 17.5464 208.975 18.7012 208.975 20H203.848C203.848 19.1309 203.582 18.457 203.049 17.9785C202.517 17.5 201.797 17.2607 200.889 17.2607C199.971 17.2607 199.246 17.4634 198.713 17.8687C198.181 18.2739 197.915 18.7891 197.915 19.4141C197.915 19.9609 198.208 20.4565 198.794 20.9009C199.38 21.3452 200.41 21.8042 201.885 22.2778C203.359 22.7515 204.57 23.2617 205.518 23.8086C207.822 25.1367 208.975 26.9678 208.975 29.3018C208.975 31.167 208.271 32.6318 206.865 33.6963C205.459 34.7607 203.53 35.293 201.079 35.293C199.351 35.293 197.786 34.9829 196.384 34.3628C194.983 33.7427 193.928 32.8931 193.22 31.814C192.512 30.7349 192.158 29.4922 192.158 28.0859H197.314C197.314 29.2285 197.61 30.0708 198.201 30.6128C198.792 31.1548 199.751 31.4258 201.079 31.4258C201.929 31.4258 202.6 31.2427 203.093 30.8765C203.586 30.5103 203.833 29.9951 203.833 29.3311Z" fill="black"/>
</svg>
